HIERARCHY
ROOT Hips
{
	OFFSET 228.634003 92.561920 -263.051910
	CHANNELS 6 Xposition Yposition Zposition Xrotation Yrotation Zrotation 
	JOINT RightUpLeg
	{
		OFFSET 0.103458 1.857820 10.548502
		CHANNELS 3 Xrotation Yrotation Zrotation
		JOINT RightLeg
		{
			OFFSET 43.500000 -0.000023 -0.000011
			CHANNELS 3 Xrotation Yrotation Zrotation
			JOINT RightFoot
			{
				OFFSET 42.372192 0.000038 0.000002
				CHANNELS 3 Xrotation Yrotation Zrotation
				JOINT RightToe
				{
					OFFSET 17.299992 -0.000004 0.000006
					CHANNELS 3 Xrotation Yrotation Zrotation
					End Site
					{
						OFFSET 0.000000 0.000000 0.000000
					}
				}
			}
		}
	}
	JOINT LeftUpLeg
	{
		OFFSET 0.103461 1.857814 -10.548508
		CHANNELS 3 Xrotation Yrotation Zrotation
		JOINT LeftLeg
		{
			OFFSET 43.500042 -0.000015 0.000008
			CHANNELS 3 Xrotation Yrotation Zrotation
			JOINT LeftFoot
			{
				OFFSET 42.372253 0.000008 0.000006
				CHANNELS 3 Xrotation Yrotation Zrotation
				JOINT LeftToe
				{
					OFFSET 17.299973 -0.000014 0.000011
					CHANNELS 3 Xrotation Yrotation Zrotation
					End Site
					{
						OFFSET 0.000000 0.000000 0.000000
					}
				}
			}
		}
	}
	JOINT Spine
	{
		OFFSET 6.901966 -2.603737 -0.000007
		CHANNELS 3 Xrotation Yrotation Zrotation
		JOINT Spine1
		{
			OFFSET 12.588102 0.000017 0.000001
			CHANNELS 3 Xrotation Yrotation Zrotation
			JOINT Spine2
			{
				OFFSET 12.343197 -0.000013 0.000000
				CHANNELS 3 Xrotation Yrotation Zrotation
				JOINT Neck
				{
					OFFSET 25.832905 -0.000008 0.000000
					CHANNELS 3 Xrotation Yrotation Zrotation
					JOINT Head
					{
						OFFSET 11.766610 0.000009 -0.000002
						CHANNELS 3 Xrotation Yrotation Zrotation
						End Site
						{
							OFFSET 0.000000 0.000000 0.000000
						}
					}
				}
				JOINT RightShoulder
				{
					OFFSET 19.745903 -1.480377 6.000115
					CHANNELS 3 Xrotation Yrotation Zrotation
					JOINT RightArm
					{
						OFFSET 11.284125 -0.000014 -0.000024
						CHANNELS 3 Xrotation Yrotation Zrotation
						JOINT RightForeArm
						{
							OFFSET 33.000046 -0.000012 0.000029
							CHANNELS 3 Xrotation Yrotation Zrotation
							JOINT RightHand
							{
								OFFSET 25.199989 0.000034 0.000012
								CHANNELS 3 Xrotation Yrotation Zrotation
								End Site
								{
									OFFSET 0.000000 0.000000 0.000000
								}
							}
						}
					}
				}
				JOINT LeftShoulder
				{
					OFFSET 19.746098 -1.480362 -6.000071
					CHANNELS 3 Xrotation Yrotation Zrotation
					JOINT LeftArm
					{
						OFFSET 11.284137 -0.000006 -0.000008
						CHANNELS 3 Xrotation Yrotation Zrotation
						JOINT LeftForeArm
						{
							OFFSET 33.000095 0.000017 0.000000
							CHANNELS 3 Xrotation Yrotation Zrotation
							JOINT LeftHand
							{
								OFFSET 25.199778 0.000144 0.000423
								CHANNELS 3 Xrotation Yrotation Zrotation
								End Site
								{
									OFFSET 0.000000 0.000000 0.000000
								}
							}
						}
					}
				}
			}
		}
	}
}
MOTION
Frames: 14
Frame Time: 0.033333
-22.142330 72.235199 306.310913 107.648105 -17.288244 10.960621 157.585496 -4.747301 171.593545 -115.661904 5.733879 -14.164182 86.786808 8.703494 -4.468822 21.454565 0.003109 0.000014 136.952000 -7.045897 -164.665479 -74.516913 2.139890 4.177396 113.538603 -2.957716 4.296886 21.454551 -0.003092 -0.000000 11.696342 2.292706 -0.424906 13.378928 4.619085 -0.581750 13.059723 4.615354 -0.609701 -16.991936 12.581172 11.022892 -28.283940 -12.722041 21.524807 -170.816816 -70.344706 -10.821704 -11.112034 54.707114 19.088611 -88.282572 -6.858234 2.749916 -17.126592 -8.904813 42.260631 -179.635396 71.589583 1.790810 -8.136972 -52.227509 -4.858306 -86.302254 6.185301 -2.574310 -11.241285 13.051079 -17.989144 
-28.945950 73.329323 311.893097 108.022802 -13.820960 9.296930 143.238902 -6.693100 171.340541 -120.465904 5.987140 -15.378770 87.933993 9.483228 -4.968225 21.454558 0.003109 0.000020 146.218081 -2.934997 -169.533874 -68.722365 1.972929 2.476098 114.607706 -2.054348 7.525701 21.454553 -0.003091 -0.000000 11.312005 1.205160 0.476788 12.624942 2.351025 1.082590 12.306615 2.357386 1.068357 -19.777962 10.883741 9.146245 -27.630658 -11.800547 18.761882 -165.385722 -70.588823 -16.420400 0.968561 50.428957 27.358873 -88.829943 -5.829599 2.702283 -17.476171 -11.656272 39.062228 174.384387 76.172346 -4.238307 -18.309579 -54.281750 6.928468 -95.537756 1.709117 -2.670821 -10.626023 9.420463 -16.762307 
-36.117580 74.798119 317.578613 108.091896 -9.478522 9.443630 129.096162 -7.469404 171.878268 -116.853103 5.579883 -15.510750 87.440854 9.569498 -5.258318 21.454562 0.003105 0.000018 156.491122 2.511398 -174.046880 -59.882229 1.925376 2.264668 113.145212 -1.982417 11.313320 21.454550 -0.003092 0.000000 11.092593 -0.163631 1.154888 12.167980 -0.447855 2.286094 11.850125 -0.434182 2.288745 -21.999401 10.453961 6.980581 -25.912998 -11.403040 16.195116 -162.768585 -72.455603 -19.098105 6.563153 43.547507 31.715314 -89.521473 -4.807894 2.661646 -18.323649 -12.152442 37.470653 170.057572 80.492687 -8.514220 -24.950278 -55.731994 12.051994 -105.493604 -0.291543 -2.972246 -11.085751 8.056428 -13.071578 
-43.595020 76.553497 323.391998 109.221698 -5.844580 11.915590 116.746839 -6.527694 173.666794 -105.513008 3.960153 -14.335292 85.642779 8.566404 -6.563409 21.454557 0.003112 0.000018 166.017583 7.702499 -176.809514 -49.702638 1.946552 4.125010 104.449090 -2.303131 15.369801 21.454550 -0.003092 -0.000000 10.734252 -1.396435 1.187565 11.430967 -2.903301 2.231852 11.112691 -2.889905 2.249337 -22.355793 10.453770 5.068816 -24.896757 -10.792806 13.909504 -162.168089 -74.587790 -19.690897 8.117397 36.033541 35.587027 -89.064902 -4.913876 2.648706 -18.819440 -12.391070 36.360734 167.506961 83.226306 -11.002239 -29.337916 -55.355937 13.728807 -113.995509 -1.421793 -3.260733 -11.273731 6.242642 -10.614599 
-51.406681 77.918503 329.243500 110.029505 -4.254824 14.932042 109.501750 -6.409702 176.150592 -88.603181 0.831654 -11.692217 84.785201 6.658022 -7.292222 21.454563 0.003108 0.000015 174.397843 10.371095 -177.275661 -41.980648 0.799139 6.535638 89.077210 -1.640574 17.662253 21.454555 -0.003093 -0.000000 10.537343 -2.060858 1.042913 11.034516 -4.211650 1.885487 10.715679 -4.200324 1.910909 -22.657998 8.116989 3.963782 -23.861464 -8.740585 10.901786 -164.956513 -75.633615 -16.828097 7.399270 30.100282 38.431787 -87.627871 -5.831554 2.648903 -19.592906 -12.027322 36.293354 168.375214 83.992469 -10.099139 -30.770101 -53.317970 12.623980 -121.736005 -1.940356 -3.543874 -11.687901 4.672178 -13.589888 
-60.023769 78.825699 335.309814 108.551595 -4.561293 17.380108 110.049941 -6.787902 177.925062 -68.192896 -1.011096 -10.768732 83.870037 6.022951 -7.341060 21.454555 0.003108 0.000018 -178.337236 9.121196 -179.671446 -39.824302 -1.105687 9.516061 76.072407 -3.242866 12.476679 21.454553 -0.003092 -0.000000 10.781857 -2.085703 1.138234 11.520233 -4.274249 2.064188 11.201405 -4.261841 2.089985 -22.483690 5.548091 3.675881 -22.523840 -8.061388 9.198546 -173.350187 -75.522904 -8.244406 5.250517 26.879228 38.618696 -86.610405 -6.844111 2.674533 -21.148661 -11.230399 37.489238 174.604183 82.868042 -3.843408 -29.265325 -51.780330 7.679176 -124.382785 -1.714821 -3.663900 -14.805219 5.492861 -15.771438 
-68.501244 79.067261 341.206512 106.802603 -4.804895 18.865514 114.413885 -7.041000 -178.979616 -50.464060 -3.352919 -11.857220 77.127828 5.837524 -10.031926 21.454558 0.003108 0.000018 -176.288726 6.436401 171.419798 -47.921000 -0.873130 9.108167 75.758143 -4.132506 8.139192 21.454555 -0.003094 -0.000002 10.897855 -2.068770 1.016016 11.757197 -4.229947 1.817394 11.438316 -4.219045 1.842934 -20.137925 5.220986 4.033679 -22.414038 -7.852207 9.234031 -177.553308 -74.596013 -3.933894 3.302336 26.583229 36.197537 -87.451652 -6.524464 2.689543 -20.864838 -12.917721 34.647490 174.243002 81.369034 -4.247212 -25.712696 -53.059805 1.941246 -119.735484 -1.489560 -3.494179 -13.501464 5.803756 -13.826658 
-76.828499 78.622871 347.401886 104.479505 -4.218163 19.670402 117.935128 -6.511904 179.211200 -56.918640 -3.669478 -10.559146 76.050168 5.862713 -6.167263 21.454558 0.003111 0.000019 -178.004907 4.906603 165.945853 -62.974228 1.159124 5.051223 77.860093 -1.979756 5.991649 21.454551 -0.003093 -0.000000 10.964979 -2.144666 0.518297 11.910190 -4.331142 0.813257 11.591155 -4.326285 0.839437 -18.181214 7.156732 5.260689 -22.192007 -8.201520 11.167638 -176.263796 -73.212634 -5.238694 1.281977 28.474560 31.041366 -90.849876 -4.334226 2.687829 -21.242170 -14.151779 32.890790 178.848599 79.559628 0.384392 -21.571098 -56.126888 -3.067761 -109.967589 -0.328302 -3.164365 -10.358021 2.632354 -18.784984 
-85.109749 78.040459 353.807312 101.259501 -3.102489 20.127031 124.540863 -5.576202 175.455115 -65.762018 -2.441276 -9.351494 87.606581 5.444208 -5.931936 21.454555 0.003117 0.000018 178.484413 3.767807 167.382132 -79.115796 -0.725783 3.111602 77.684359 -0.152589 7.339120 21.454548 -0.003090 -0.000002 11.178446 -2.177805 -0.230447 12.365921 -4.318307 -0.693215 12.046860 -4.322552 -0.667086 -15.061105 7.710751 7.064571 -24.809726 -8.053219 13.178072 -172.946086 -71.427209 -8.632814 -3.769668 31.438394 24.865452 -94.337767 -2.649103 2.726109 -20.507226 -14.466839 31.860162 175.856812 77.741753 -2.697913 -15.366020 -59.255368 -7.963766 -97.532765 1.952951 -2.776589 -11.774452 2.734436 -27.824796 
-93.550163 78.202454 360.413605 99.345136 -2.026321 20.754602 133.346111 -3.652205 172.708792 -68.776781 -2.102483 -8.859212 96.400880 5.464601 -5.475917 21.454557 0.003105 0.000018 171.395579 3.499210 170.725469 -93.017901 -2.768754 4.549929 79.076741 -1.564546 5.829505 21.454557 -0.003093 -0.000000 11.162425 -2.220855 -0.883165 12.358821 -4.334424 -2.000306 12.039937 -4.346559 -1.974069 -14.114524 6.443069 8.124910 -25.709168 -7.390912 13.591696 -173.032024 -69.422596 -8.531788 -12.907495 33.309453 18.490432 -95.674872 -2.450534 2.772141 -21.121966 -12.483572 33.199586 178.781513 75.161198 0.231917 -7.157922 -60.643747 -15.988896 -86.281777 6.174791 -2.572671 -9.154914 5.995766 -26.769400 
-101.943703 79.133133 366.803314 98.159749 -2.457584 21.985580 143.161120 -1.856995 171.651560 -66.908328 -1.644386 -8.314316 102.674505 5.315004 -4.893453 21.454558 0.003108 0.000018 161.414924 1.889409 174.667991 -102.087409 -3.764627 6.662187 80.115086 -3.495964 4.077770 21.454551 -0.003091 -0.000002 10.944062 -1.851151 -1.439983 11.928545 -3.543732 -3.064808 11.610270 -3.562302 -3.043365 -14.822223 5.625298 9.229700 -24.895590 -6.780738 14.127021 -176.140511 -69.375925 -5.321696 -21.475754 35.835489 12.467283 -98.483043 -1.924324 2.861143 -21.152879 -11.156258 34.741262 -172.946182 72.965292 8.682213 5.254835 -59.018066 -26.308278 -82.643636 7.187014 -2.484095 -9.041302 8.290393 -22.254367 
-110.498199 80.904259 373.308685 96.965949 -3.575889 22.524760 154.896369 -0.733002 171.976992 -59.954991 -1.977116 -8.249028 105.002404 5.360125 -4.340819 21.454560 0.003106 0.000017 150.826081 -0.483308 178.319642 -104.219814 -3.836968 7.547229 80.902068 -4.320329 3.418591 21.454555 -0.003095 -0.000001 10.627994 -1.215074 -2.027324 11.285838 -2.226376 -4.164316 10.968390 -2.251601 -4.150837 -14.109006 6.140628 10.531409 -25.040768 -8.483751 16.350226 -177.729595 -70.252819 -3.693309 -27.354465 39.323752 7.741954 -102.521310 -0.783885 2.961841 -20.441930 -11.392219 31.629810 -165.778677 72.663575 16.044599 16.534730 -54.831225 -35.567640 -84.798274 5.952826 -2.492045 -10.813642 7.399379 -22.110977 
-119.268402 83.132172 379.895905 95.824453 -4.710691 22.439801 166.753522 0.327297 174.567696 -50.633603 -3.518763 -9.352226 99.263501 6.003462 -4.440213 21.454558 0.003109 0.000017 141.656976 -2.927600 -178.294780 -99.450198 -3.150416 7.055184 80.484053 -3.984867 3.600298 21.454558 -0.003093 -0.000000 10.265535 -0.536316 -2.546656 10.537354 -0.838304 -5.131626 10.220607 -0.869376 -5.126499 -12.990310 8.097266 11.800998 -24.274986 -10.041989 18.768156 -177.767462 -71.243401 -3.668218 -30.520369 42.555613 5.224636 -107.092701 0.334392 3.086260 -20.664660 -11.842862 29.574282 -161.266681 73.533414 20.668588 24.404392 -49.041554 -43.077272 -87.894897 3.954995 -2.488678 -10.752888 8.338158 -18.371776 
-128.296906 85.311996 386.485901 94.632667 -5.806679 22.497391 177.637962 0.288499 176.027130 -41.866720 -4.895131 -9.441205 87.611397 5.901353 -4.092551 21.454562 0.003102 0.000018 135.758124 -5.397003 -176.847299 -88.872147 -0.426445 6.244390 79.904853 -3.493486 3.725667 21.454551 -0.003093 -0.000001 10.002891 0.164799 -3.041181 9.977493 0.591332 -6.056752 9.661303 0.554678 -6.060206 -12.444984 11.379948 12.885004 -23.292589 -11.265779 21.177753 -176.217023 -72.385505 -5.277302 -31.543046 45.657117 4.722261 -111.097200 1.199088 3.200922 -19.446221 -10.913532 28.000719 -159.488319 74.565817 22.476713 29.274665 -43.130421 -48.452389 -90.098897 2.392058 -2.476929 -11.241159 10.478798 -13.553319 
